<?xml version="1.0" standalone="no"?><!DOCTYPE svg PUBLIC "-//W3C//DTD SVG 1.1//EN" "http://www.w3.org/Graphics/SVG/1.1/DTD/svg11.dtd"><svg t="1709628027866" class="icon" viewBox="0 0 1024 1024" version="1.1" xmlns="http://www.w3.org/2000/svg" p-id="1057" xmlns:xlink="http://www.w3.org/1999/xlink" width="200" height="200"><path d="M150.02086329 221.52431102c0-14.05685647 5.93117899-28.29972951 15.87303701-38.24158755l145.58348405-145.58348406c10.04994803-10.05497651 24.51905952-15.873037 38.49673156-15.87303554h463.78576892c33.31716305 0 60.22176463 26.96367507 60.22176611 60.31980065v859.72558765c0 33.28197113-26.91465707 60.31980065-60.2808381 60.31980065h-603.39911144c-33.34607158 0-60.28083811-27.15472011-60.28083811-60.34493859z m200.44594695-83.4198507l-84.17146113 84.17146113c-5.89221645 5.89221645-3.9327525 10.70352246 4.42418896 10.703521h75.3243396c8.52159217 0 15.12645503-6.77076996 15.12645503-15.12645358v-75.3243396c0-8.52410641-4.79245294-10.33525846-10.70352246-4.42418895z m417.99792236-25.7859865H444.12891187v143.34625238c0 33.29705358-26.98378451 60.26072865-60.26072865 60.26072717h-128.28892481c-8.3456296 0-15.06738157 6.72677894-15.06738156 15.02339204v565.70551959c0 8.331805 6.75568752 15.02339055 15.08749102 15.02339055h512.79120879c8.22371351 0 15.08749104-6.75065904 15.08749102-15.07743702v-769.21823376c0-8.40595946-6.72677894-15.07743703-15.01836355-15.07743704z m-287.29580332 665.36290068l-151.21427012-154.38158758c-42.53254857-42.65572251 21.26376005-106.65187377 63.81139107-63.99740911l51.76804502 52.1111696c11.78317502 11.86235795 21.3416866 7.92960547 21.34168661-8.78804806v-207.47186242c0-24.79431447 20.19793358-45.13427361 45.11919115-45.13427361 24.86721258 0 45.11919114 20.20798756 45.11919114 45.13427361v207.47186242c0 16.62841659 9.55474096 20.65543449 21.34168659 8.78804806l51.77684117-52.1111696c42.53254857-42.65572251 106.34268326 21.3416866 63.81516316 63.99740911l-149.66831904 154.16791884c-17.49817251 18.02354451-45.73380155 18.05245305-63.20683612 0.2111545z" fill="#004F7C" p-id="1058"></path></svg>