<?xml version="1.0" standalone="no"?><!DOCTYPE svg PUBLIC "-//W3C//DTD SVG 1.1//EN" "http://www.w3.org/Graphics/SVG/1.1/DTD/svg11.dtd"><svg t="1690784696116" class="icon" viewBox="0 0 1024 1024" version="1.1" xmlns="http://www.w3.org/2000/svg" p-id="2482" xmlns:xlink="http://www.w3.org/1999/xlink" width="200" height="200"><path d="M250.54 647.86c0-9.91 8.39-17.91 18.33-17.91 9.91 0 18.11 7.99 18.11 17.91v178.75c0 9.94-8.19 18.13-18.11 18.13-9.94 0-18.33-8.19-18.33-18.13V647.86z m-67.51 219.3h657.94V607.1H183.03v260.06z m688.12 60.81H152.62c-16.83 0-30.41-13.36-30.41-30.61V576.47c0-16.61 13.58-29.74 30.41-29.74h32.99v-8.41c0-3.25 0-5.83 0.86-8.41h-33.85c-16.83 0-30.41-13.38-30.41-30.19V178.84c0-17.05 13.58-30.63 30.41-30.63h32.99v-21.99c0-16.61 13.38-30.19 30.19-30.19 16.83 0 30.63 13.58 30.63 30.19v21.99h531.36v-21.99c0-16.61 13.36-30.19 30.19-30.19 16.8 0 30.61 13.58 30.61 30.19v21.99h32.57c17.05 0 30.63 13.58 30.63 30.63v320.87c0 16.8-13.58 30.19-30.63 30.19H837.3c0.86 2.58 1.28 5.17 1.28 8.41v8.41h32.57c17.05 0 30.63 13.14 30.63 29.74V897.36c0 17.25-13.58 30.61-30.63 30.61zM246.43 546.72h531.36v-8.41c0-3.25 0.2-5.83 1.06-8.41H244.93c0.86 2.58 1.5 5.17 1.5 8.41v8.41z m594.54-337.7H183.03v260.06h657.94V209.02z m-590.43 40.74c0-10.14 8.39-17.89 18.33-17.89 9.91 0 18.11 7.75 18.11 17.89v178.78c0 9.91-8.19 18.11-18.11 18.11-9.94 0-18.33-8.19-18.33-18.11V249.76z m97.25 0c0-10.14 8.19-17.89 18.11-17.89 10.36 0 18.33 7.75 18.33 17.89v178.78c0 9.91-7.97 18.11-18.33 18.11-9.91 0-18.11-8.19-18.11-18.11V249.76z m97.03 0c0-10.14 8.22-17.89 18.35-17.89 10.14 0 18.33 7.75 18.33 17.89v178.78c0 9.91-8.19 18.11-18.33 18.11-10.13 0-18.35-8.19-18.35-18.11V249.76z m97.49 0c0-10.14 8.19-17.89 18.33-17.89 9.91 0 18.33 7.75 18.33 17.89v178.78c0 9.91-8.41 18.11-18.33 18.11-10.14 0-18.33-8.19-18.33-18.11V249.76z m97.47 0c0-10.14 7.97-17.89 18.11-17.89 10.36 0 18.11 7.75 18.11 17.89v178.78c0 9.91-7.75 18.11-18.11 18.11-10.14 0-18.11-8.19-18.11-18.11V249.76z m97.03 0c0-10.14 8.19-17.89 18.11-17.89 10.36 0 18.33 7.75 18.33 17.89v178.78c0 9.91-7.97 18.11-18.33 18.11-9.91 0-18.11-8.19-18.11-18.11V249.76z m-389.02 398.1c0-9.91 8.19-17.91 18.11-17.91 10.36 0 18.33 7.99 18.33 17.91v178.75c0 9.94-7.97 18.13-18.33 18.13-9.91 0-18.11-8.19-18.11-18.13V647.86z m97.03 0c0-9.91 8.22-17.91 18.35-17.91 10.14 0 18.33 7.99 18.33 17.91v178.75c0 9.94-8.19 18.13-18.33 18.13-10.13 0-18.35-8.19-18.35-18.13V647.86z m97.49 0c0-9.91 8.19-17.91 18.33-17.91 9.91 0 18.33 7.99 18.33 17.91v178.75c0 9.94-8.41 18.13-18.33 18.13-10.14 0-18.33-8.19-18.33-18.13V647.86z m97.47 0c0-9.91 7.97-17.91 18.11-17.91 10.36 0 18.11 7.99 18.11 17.91v178.75c0 9.94-7.75 18.13-18.11 18.13-10.14 0-18.11-8.19-18.11-18.13V647.86z m97.03 0c0-9.91 8.19-17.91 18.11-17.91 10.36 0 18.33 7.99 18.33 17.91v178.75c0 9.94-7.97 18.13-18.33 18.13-9.91 0-18.11-8.19-18.11-18.13V647.86z" fill="#e6e6e6" p-id="2483"></path></svg>
