<svg width="336" height="336" viewBox="0 0 336 336" fill="none" xmlns="http://www.w3.org/2000/svg">
<path d="M167.675 43C169.912 43.0567 171.648 44.4138 173.187 45.904C186.597 58.8968 187.231 103.416 187.406 121.864L219.905 140.044C219.88 135.611 218.649 131.134 224.455 130.928C231.061 130.695 230.04 134.214 230.087 139.261C230.106 141.419 230.067 143.622 230.057 145.756C232.191 146.77 235.488 148.756 237.645 149.964L252.448 158.248C252.545 153.05 250.734 147.367 257.597 147.527C263.819 147.671 262.688 151.543 262.656 156.106L262.645 163.998C264.963 165.143 267.475 166.645 269.743 167.923C275.423 171.122 281.19 174.204 286.776 177.556C288.197 178.409 289.074 180.376 288.995 182C288.138 188.88 287.539 195.959 286.218 202.753C285.94 204.178 283.479 205.504 282.076 205.104C278.639 204.119 275.217 202.927 271.814 201.799L251.323 195.015L185.163 173.126C184.905 177.732 184.358 182.82 183.907 187.423C182.985 196.868 181.899 206.298 180.65 215.705C178.759 229.959 176.248 247.449 173.173 261.459C176.769 263.951 200.496 279.522 201.276 280.751C202.31 282.379 200.011 288.231 199.472 290.186C199.178 291.259 198.767 292.27 197.72 292.808C197.091 293.132 196.389 292.973 195.726 292.857C192.572 292.304 189.374 291.222 186.276 290.394L168.125 285.513C166.527 285.763 162.618 286.933 160.791 287.425L145.639 291.506C143.883 291.977 138.257 294.105 137.311 291.997C136.629 290.476 133.908 282.544 134.406 281.363C135.109 279.702 145.187 273.377 146.878 272.242C152.165 268.619 157.485 265.041 162.835 261.51C157.248 232.283 153.252 202.778 150.864 173.121C144.044 175.485 136.967 177.735 130.097 180.007L92.2966 192.505L67.3389 200.751C63.2228 202.111 59.0995 203.643 54.9359 204.842C54.0877 205.085 53.3897 205.226 52.5068 205.048C51.5586 204.857 50.5907 204.212 50.0847 203.385C49.2345 201.993 47.1196 184.901 47.0077 182.296C46.9774 181.588 47.0322 180.86 47.242 180.181C47.521 179.278 47.9967 178.614 48.7208 178.012C51.1585 175.984 54.4682 174.521 57.2452 172.966L73.4134 163.958C73.2211 159.716 73.3509 155.151 73.4301 150.933C73.7562 147.403 76.5274 147.705 79.0014 147.58C84.9654 147.277 83.5659 153.865 83.5356 158.248C91.0194 154.15 98.4354 149.806 105.942 145.758C105.915 141.812 105.692 137.318 106.12 133.495C106.713 130.218 113.527 130.353 115.213 132.18C116.522 133.599 116.092 138.006 116.105 140.051L148.698 121.781C148.619 102.51 149.746 66.8722 159.274 50.6674C161.177 47.4305 163.873 44.0074 167.675 43Z" fill="black"/>
</svg>
