<svg width="336" height="336" viewBox="0 0 336 336" fill="none" xmlns="http://www.w3.org/2000/svg">
<path d="M152.777 43.2759C159.267 42.8846 167.51 42.9743 174.085 43.149C208.963 44.0753 270.574 44.1662 272.557 91.814C272.955 101.403 272.768 111.428 272.763 121.05L272.755 171.385L272.766 204.412C272.771 212.087 273.152 222.218 271.739 229.544C270.149 237.489 266.433 244.853 260.987 250.852C251.986 260.899 240.212 265.486 226.938 266.226C233.23 272.26 240.053 279.959 246.405 285.642C246.407 287.785 246.364 290.033 246.574 292.156L220.186 292.127C212.292 283.683 202.632 274.434 194.37 266.187C191.01 266.042 187.133 266.121 183.734 266.117C170.856 266.11 157.374 265.917 144.547 266.195C141.707 268.589 138.519 272.087 135.835 274.74C130.058 280.45 124.405 286.435 118.528 292.033C115.236 292.26 110.968 292.158 107.6 292.161L89.1768 292.163C89.3622 290.398 89.2924 287.635 89.2969 285.791C95.155 279.603 102.68 272.187 108.798 266.199C84.9323 266.178 63.8863 246.389 63.2051 222.466C62.9446 213.318 63.0522 204.12 63.0537 194.966L63.0567 144.985L63.0489 111.531C63.0469 103.236 62.6507 93.0017 64.1485 85.064C65.429 78.1717 68.6051 71.772 73.3194 66.5835C91.2707 46.6526 127.721 44.5436 152.777 43.2759ZM128.476 218.326C127.452 207.496 117.856 199.539 107.024 200.538C96.1583 201.54 88.17 211.173 89.1963 222.037C90.2228 232.901 99.8739 240.868 110.735 239.817C121.563 238.77 129.499 229.155 128.476 218.326ZM246.626 218.382C245.631 207.516 236.002 199.524 225.139 200.545C214.313 201.564 206.353 211.152 207.345 221.98C208.337 232.808 217.906 240.791 228.736 239.826C239.605 238.857 247.621 229.248 246.626 218.382ZM155.006 95.2036C133.223 95.2686 110.601 94.8442 88.9317 95.2447C88.8142 112.603 88.6857 130.762 88.9209 148.099L133.573 148.11C139.366 148.111 149.394 148.449 154.905 148.09C155.263 130.56 154.826 112.765 155.006 95.2036ZM246.813 95.2544C225.239 95.1367 202.38 94.8846 180.878 95.2466L180.852 148.096L224.84 148.113C231.89 148.115 239.809 147.932 246.798 148.136L246.813 95.2544Z" fill="black"/>
</svg>
