<?xml version="1.0" standalone="no"?><!DOCTYPE svg PUBLIC "-//W3C//DTD SVG 1.1//EN" "http://www.w3.org/Graphics/SVG/1.1/DTD/svg11.dtd"><svg t="1769580114090" class="icon" viewBox="0 0 1024 1024" version="1.1" xmlns="http://www.w3.org/2000/svg" p-id="4036" xmlns:xlink="http://www.w3.org/1999/xlink" width="200" height="200"><path d="M951.383149 960.335581l-75.937079-67.243946c-19.943071-18.92035-46.278152-29.658926-73.891635-29.658926h-1.022722c-28.636205 0-55.482647 11.249938-75.425718 31.70437l-44.232709 44.74407c-6.64769 6.64769-15.340824 10.227216-24.545318 10.227216s-17.897628-3.579526-24.545319-10.227216l-45.766791-45.766792c-19.943071-19.943071-46.789513-30.681648-75.425718-31.193009-28.124844 0-54.971286 10.738577-75.425718 30.681648l-47.300874 46.789513c-13.295381 13.295381-35.539576 13.295381-48.834956 0l-47.300874-46.789513c-19.943071-19.943071-46.789513-30.681648-75.425718-30.681648-28.124844 0-54.459925 10.738577-74.402996 30.170287L67.496008 959.82422c-14.829463 13.295381-15.852185 36.562297-2.556804 51.39176 13.295381 14.829463 36.562297 15.852185 51.39176 2.556804l75.425718-67.243945c0.511361-0.511361 1.022722-1.022722 1.534082-1.022722 13.295381-13.295381 35.539576-13.295381 48.834956 0l47.300874 46.789513c19.943071 19.943071 46.789513 30.681648 75.425718 30.681648 28.124844 0 54.971286-10.738577 75.425718-30.681648l47.300874-46.789513c13.295381-13.295381 35.539576-13.295381 48.834956 0l45.766792 45.766792c19.943071 19.943071 47.300874 31.193009 75.425718 31.193009h0.51136c28.636205 0 55.482647-11.249938 75.937079-31.70437l44.232709-44.74407c13.295381-13.295381 35.539576-13.806742 48.834956-0.511361l1.534083 1.534083 76.9598 67.755306c6.64769 6.13633 15.340824 9.204494 24.033958 9.204494 10.227216 0 19.943071-4.090886 27.102122-12.272659 10.994257-14.829463 9.971536-38.09638-5.369288-51.39176z" p-id="4037"></path><path d="M964.678529 440.281648l-127.840199-55.482647V222.697628c0-14.829463-9.204494-28.124844-23.011236-33.749813L586.782899 100.738077V0H439.510989V100.738077L204.540702 191.504619c-13.806742 5.624969-23.011236 18.92035-23.011236 33.749813V387.100125L58.291513 440.281648C39.371164 448.463421 32.212112 471.986017 43.973411 489.627965l190.481897 305.282397c4.090886 6.13633 10.227216 10.227216 17.386268 11.249938 33.749813 6.64769 65.198502 23.011236 89.74382 47.812234l3.579525 3.579526c10.738577 10.227216 27.613483 10.227216 38.607741 0l3.579525-3.579526c33.238452-32.727091 77.471161-50.8804 123.749314-50.880399h0.51136c47.300874 0 91.277903 18.408989 124.260675 51.39176l1.534082 1.534083c10.738577 10.738577 28.124844 10.738577 38.60774 0 26.079401-26.079401 59.062172-43.721348 95.368789-49.857678 7.159051-1.022722 13.806742-5.113608 17.897628-11.249938l190.481898-305.282397c10.482896-17.386267 3.835206-40.908864-15.085144-49.346317z m-200.197752-86.675655l-227.299876-97.925593c-16.363546-7.159051-35.539576-7.159051-51.903121 0l-231.390761 99.971036V250.055431l258.237203-99.459676 252.612235 97.414233c-0.25568 0-0.25568 105.596005-0.25568 105.596005z" p-id="4038"></path></svg>