<?xml version="1.0" encoding="UTF-8"?>
<svg id="ec-evergreen-line-logo" xmlns="http://www.w3.org/2000/svg" viewBox="0 0 700 100">
  <g id="grp-el">
    <g>
      <polygon points="692.84 28.72 692.84 39.55 669.06 39.55 669.06 45.2 692.88 45.2 692.88 54.73 669.06 54.73 669.06 61.22 692.91 61.22 692.91 72.05 655.19 72.06 655.19 28.74 692.84 28.72" fill="#0ab04b"/>
      <polygon points="650.09 28.6 636.25 28.6 636.25 52.46 623.24 28.62 609.39 28.62 609.39 71.93 623.25 71.93 623.25 48.08 636.25 71.93 650.09 71.93 650.09 28.6" fill="#0ab04b"/>
      <rect x="590.24" y="28.63" width="13.87" height="43.31" fill="#0ab04b"/>
    </g>
    <polygon points="566.01 28.62 552.16 28.62 552.16 71.94 586.82 71.94 586.82 61.12 566.01 61.12 566.01 28.62" fill="#0ab04b"/>
    <g>
      <path d="M33.77,8.54c-2.67,1.13-5.24,2.52-7.64,4.15-2.38,1.61-4.62,3.46-6.66,5.49s-3.88,4.28-5.49,6.66c-1.63,2.41-3.02,4.98-4.15,7.65-2.35,5.55-3.54,11.44-3.54,17.52s1.19,11.97,3.54,17.52c1.13,2.67,2.52,5.24,4.15,7.65,1.61,2.38,3.46,4.62,5.49,6.66,2.04,2.04,4.28,3.88,6.66,5.49,2.41,1.63,4.98,3.02,7.65,4.15,5.55,2.35,11.44,3.54,17.52,3.54s11.97-1.19,17.52-3.54c2.67-1.13,5.24-2.52,7.65-4.15,2.38-1.61,4.62-3.46,6.66-5.49,2.04-2.04,3.88-4.28,5.49-6.66,1.63-2.41,3.02-4.98,4.15-7.65,2.35-5.55,3.54-11.44,3.54-17.52s-1.19-11.97-3.54-17.52h0c-1.13-2.67-2.53-5.24-4.15-7.65-1.61-2.38-3.46-4.62-5.49-6.66-2.04-2.04-4.28-3.88-6.66-5.49-2.41-1.63-4.98-3.02-7.65-4.15-5.55-2.35-11.44-3.54-17.52-3.54s-11.97,1.19-17.52,3.54Z" fill="#fff"/>
      <g>
        <path d="M37.09,63.57c.27-.59,.64-1.37,1.03-2.23-.45-2.7-.73-5.44-.86-8.2-.29-.07-.58-.14-.88-.22,.13,3.27,.49,6.51,1.08,9.7-1.98,.36-3.94,.8-5.88,1.32-1.32,.35-2.63,.74-3.92,1.16l.49,.75c1.21-.39,2.42-.75,3.65-1.07,1.74-.46,3.5-.86,5.28-1.2Z" fill="#f05a21"/>
        <path d="M65.12,62.6c.58-3.19,.94-6.42,1.08-9.69-.3,.07-.59,.15-.88,.22-.12,2.77-.41,5.51-.86,8.23,.39,.84,.74,1.6,1.01,2.18,1.76,.33,3.5,.72,5.22,1.17,1.26,.33,2.51,.7,3.75,1.09l.51-.75c-1.33-.43-2.68-.83-4.04-1.18-1.9-.5-3.83-.93-5.78-1.28Z" fill="#f05a21"/>
        <path d="M49.9,75.83c-.05-.27-.1-.56-.16-.86-1.73,.1-3.44,.37-5.11,.81-.73,.19-1.46,.42-2.18,.68-.48-1.16-.94-2.34-1.35-3.52-1.06-2.99-1.9-6.03-2.53-9.13-.29,.14-.57,.26-.81,.37,.63,3.06,1.47,6.08,2.52,9.04,.37,1.04,.76,2.07,1.18,3.09l2.23,.64c.38-.12,.77-.24,1.16-.34,1.64-.43,3.33-.7,5.04-.79Z" fill="#f05a21"/>
        <path d="M59.64,61.82s-.09,0-.13-.01c-1.41-.15-2.83-.26-4.26-.33-.05,.27-.1,.55-.16,.86,2.4,.12,4.78,.34,7.14,.68-.84-.39-1.73-.8-2.6-1.2Z" fill="#f05a21"/>
        <path d="M59.64,61.82s-.09,0-.13-.01c-1.41-.15-2.83-.26-4.26-.33-.05,.27-.1,.55-.16,.86,2.4,.12,4.78,.34,7.14,.68-.84-.39-1.73-.8-2.6-1.2Z" fill="#f05a21"/>
        <path d="M62.29,37c-2.37,.34-4.77,.56-7.19,.68,.06,.31,.11,.6,.16,.86,1.48-.07,2.96-.19,4.43-.34,.87-.4,1.76-.81,2.6-1.2Z" fill="#f05a21"/>
        <path d="M64.81,64.2c-.24-.11-.51-.24-.81-.37-.63,3.09-1.47,6.13-2.53,9.12-.42,1.2-.88,2.38-1.36,3.54-.71-.26-1.44-.49-2.17-.69-1.67-.45-3.38-.73-5.12-.83-.05,.3-.11,.59-.16,.86,1.71,.09,3.41,.36,5.05,.8,.4,.11,.79,.22,1.18,.35l2.21-.65c.42-1.02,.81-2.06,1.18-3.11,1.04-2.96,1.88-5.97,2.52-9.03Z" fill="#f05a21"/>
        <path d="M91.2,33.14c-1.09-2.57-2.43-5.04-3.99-7.36-1.55-2.29-3.33-4.45-5.29-6.41-1.96-1.96-4.12-3.74-6.41-5.29-2.32-1.56-4.79-2.91-7.36-3.99-5.34-2.26-11.01-3.41-16.86-3.41s-11.52,1.15-16.86,3.41c-2.57,1.08-5.04,2.43-7.36,3.99-2.29,1.55-4.45,3.33-6.41,5.29-1.96,1.96-3.74,4.12-5.29,6.41-1.56,2.32-2.91,4.79-3.99,7.36-2.26,5.34-3.4,11.01-3.4,16.86s1.15,11.52,3.4,16.86c1.09,2.57,2.43,5.04,3.99,7.36,1.55,2.29,3.33,4.45,5.29,6.41,1.96,1.96,4.12,3.74,6.41,5.29,2.32,1.56,4.79,2.91,7.36,3.99,5.34,2.26,11.01,3.4,16.86,3.4s11.52-1.15,16.86-3.4c2.57-1.09,5.04-2.43,7.36-3.99,2.29-1.55,4.45-3.33,6.41-5.29,1.96-1.96,3.74-4.12,5.29-6.41,1.56-2.32,2.91-4.79,3.99-7.36,2.26-5.34,3.4-11.01,3.4-16.86s-1.15-11.52-3.4-16.86Zm-.8,.34c2.16,5.11,3.28,10.52,3.33,16.11h-13.75c-.05-5.3-.98-10.48-2.75-15.37,3.83-1.37,7.53-3.06,11.05-5.03,.79,1.4,1.49,2.83,2.12,4.3Zm-15.38-18.68c2.25,1.52,4.36,3.26,6.28,5.18,1.92,1.92,3.67,4.04,5.18,6.28,.48,.71,.93,1.43,1.37,2.16-3.48,1.95-7.13,3.61-10.91,4.97-1.33-3.46-3.07-6.77-5.23-9.87-1.13-1.63-2.36-3.18-3.68-4.64,1.85-1.58,3.49-3.41,4.86-5.44,.73,.43,1.44,.88,2.14,1.35Zm-7.21-3.91c1.48,.62,2.92,1.34,4.32,2.13-1.32,1.95-2.91,3.72-4.69,5.23-1.57-1.67-3.26-3.23-5.06-4.66-3.05-2.42-6.38-4.44-9.92-6.02,5.32,.14,10.47,1.26,15.35,3.32Zm-1.04,7.91c-1.03,.82-2.12,1.56-3.26,2.2-.95,.54-1.92,1.01-2.93,1.41-2.1-4.89-4.76-9.51-7.94-13.82,3.27,1.51,6.36,3.41,9.2,5.66,1.76,1.39,3.4,2.91,4.93,4.53Zm-32.01-7.91c4.87-2.06,10.03-3.18,15.35-3.32-3.54,1.58-6.86,3.6-9.92,6.02-1.81,1.44-3.51,3-5.08,4.68-1.78-1.52-3.37-3.28-4.69-5.24,1.41-.79,2.86-1.51,4.34-2.14Zm15.17-2.29c-3.18,4.31-5.84,8.94-7.95,13.83-1-.4-1.98-.87-2.92-1.4-1.15-.65-2.24-1.39-3.28-2.21,1.53-1.64,3.19-3.16,4.95-4.55,2.84-2.25,5.93-4.15,9.2-5.66ZM16.09,26.27c1.52-2.25,3.26-4.36,5.18-6.28,1.92-1.92,4.03-3.66,6.28-5.18,.69-.47,1.4-.91,2.12-1.34,1.37,2.04,3.01,3.87,4.85,5.45-1.32,1.46-2.54,3-3.67,4.62-2.15,3.09-3.89,6.39-5.22,9.84-3.78-1.36-7.43-3.02-10.91-4.97,.43-.73,.88-1.44,1.35-2.14Zm-3.91,7.21c.62-1.47,1.34-2.92,2.13-4.32,3.52,1.97,7.22,3.65,11.04,5.03-1.77,4.9-2.71,10.09-2.76,15.4H8.84c.05-5.58,1.17-11,3.33-16.11Zm78.23,33.05c-.63,1.49-1.35,2.95-2.15,4.36-.92-.52-1.85-1.01-2.8-1.49l-.36,.79c.92,.46,1.83,.95,2.72,1.45-.42,.71-.87,1.42-1.33,2.1-1.52,2.25-3.26,4.36-5.18,6.28-1.92,1.92-4.03,3.67-6.28,5.18-.71,.48-1.43,.94-2.17,1.37-.47-.7-.97-1.37-1.5-2.01l-.73,.48c.52,.63,1.01,1.29,1.48,1.97-1.39,.79-2.83,1.49-4.29,2.11-4.87,2.06-10.03,3.18-15.35,3.32,2.09-.93,4.11-2.02,6.05-3.26l-.22-.89c-1.81,1.17-3.7,2.21-5.65,3.12,.56-.76,1.11-1.53,1.63-2.31h-1.05c-.49,.7-.99,1.4-1.51,2.09v-2.1h-.38s-.49,0-.49,0v2.1c-.52-.69-1.02-1.39-1.51-2.09h-1.05c.53,.78,1.07,1.55,1.63,2.31-1.92-.89-3.78-1.91-5.56-3.05l-.22,.89c1.9,1.21,3.89,2.28,5.95,3.2-5.32-.14-10.47-1.26-15.35-3.32-1.48-.63-2.94-1.34-4.35-2.14,.47-.7,.98-1.38,1.51-2.02l-.73-.48c-.54,.66-1.06,1.35-1.54,2.07-.72-.43-1.42-.87-2.11-1.34-2.25-1.52-4.36-3.26-6.28-5.18-1.92-1.92-3.67-4.04-5.18-6.28-.46-.68-.89-1.37-1.31-2.07,.93-.52,1.86-1.01,2.81-1.49l-.36-.79c-.97,.49-1.94,1-2.89,1.53-.81-1.42-1.53-2.89-2.17-4.39-2.16-5.1-3.28-10.5-3.33-16.07h13.75c0,.68,.03,1.35,.06,2.03h.87c-.04-.67-.06-1.35-.06-2.03h4.28v-.87h-4.28c.05-5.21,.97-10.3,2.71-15.11,1.78,.61,3.59,1.17,5.42,1.65,1.94,.51,3.89,.94,5.87,1.3-.58,3.19-.94,6.43-1.07,9.7,.3-.07,.59-.15,.88-.22,.12-2.76,.41-5.5,.86-8.21-.39-.85-.75-1.62-1.02-2.21-1.78-.33-3.54-.73-5.29-1.19-1.8-.47-3.58-1.02-5.34-1.62,1.3-3.38,3.01-6.61,5.11-9.64,1.11-1.6,2.32-3.12,3.62-4.56,1.09,.87,2.24,1.64,3.44,2.33,.97,.55,1.98,1.03,3.01,1.45-.49,1.17-.94,2.35-1.36,3.54-1.05,2.97-1.89,6-2.53,9.08,.24,.11,.51,.24,.81,.37,.63-3.11,1.48-6.16,2.54-9.16,.42-1.18,.87-2.36,1.35-3.52,.72,.26,1.44,.49,2.18,.69,1.66,.44,3.38,.72,5.11,.82,.05-.3,.11-.59,.16-.86-1.71-.09-3.4-.36-5.04-.8-.7-.19-1.38-.4-2.06-.65,2.13-4.93,4.83-9.6,8.06-13.92v12.16h.87V8.81c3.23,4.32,5.93,8.98,8.05,13.91-.68,.25-1.36,.47-2.06,.65-1.65,.44-3.34,.71-5.06,.81,.05,.27,.1,.56,.16,.86,1.74-.1,3.46-.38,5.13-.83,.73-.2,1.46-.43,2.17-.69,.48,1.16,.94,2.34,1.36,3.53,1.06,3,1.9,6.05,2.53,9.16,.29-.13,.57-.26,.81-.37-.63-3.07-1.48-6.1-2.53-9.07-.42-1.2-.88-2.38-1.37-3.55,1.03-.42,2.04-.91,3.02-1.46,1.2-.68,2.34-1.45,3.42-2.32,1.31,1.45,2.53,2.98,3.64,4.58,2.11,3.03,3.82,6.27,5.12,9.66-1.78,.61-3.59,1.16-5.43,1.64-1.72,.45-3.47,.83-5.23,1.16-.27,.58-.62,1.34-1.01,2.17,.45,2.72,.74,5.47,.86,8.25,.29,.07,.58,.14,.88,.22-.13-3.27-.49-6.5-1.07-9.69,1.95-.35,3.89-.77,5.79-1.27,1.86-.48,3.7-1.04,5.51-1.66,1.74,4.8,2.65,9.88,2.7,15.09h-4.28v.87h4.28c0,.68-.03,1.35-.06,2.03h.87c.04-.67,.06-1.35,.06-2.03h13.75c-.06,5.57-1.18,10.98-3.33,16.07Z" fill="#f05a21"/>
        <path d="M42.87,38.19c1.47,.16,2.95,.27,4.44,.35,.05-.26,.1-.55,.16-.86-2.42-.12-4.83-.35-7.21-.69,.84,.39,1.74,.8,2.62,1.2Z" fill="#f05a21"/>
        <path d="M40.29,63.03c2.37-.34,4.77-.58,7.17-.7-.06-.31-.11-.6-.16-.86-1.47,.07-2.94,.19-4.4,.35-.87,.4-1.77,.82-2.61,1.21Z" fill="#f05a21"/>
      </g>
      <polygon points="73.88 50.01 59.78 46.5 64.05 37.27 54.82 41.5 51.29 21.96 47.76 41.49 38.5 37.24 42.77 46.49 28.69 50.01 28.69 50.01 42.79 53.54 38.51 62.8 47.76 58.54 51.29 78.07 54.82 58.54 64.05 62.76 59.77 53.53 73.88 50.01 73.88 50.01" fill="#0ab04b"/>
      <path d="M55.54,81.93v-1.56c0-.76-.62-1.37-1.37-1.37h-5.77c-.76,0-1.37,.62-1.37,1.37v6.42c0,.76,.62,1.38,1.37,1.38h5.77c.76,0,1.37-.62,1.37-1.38v-3.94h-2.94s-1.56,0-1.56,0v1.93h1.56v.63c0,.1-.03,.19-.09,.27-.08,.12-.22,.19-.37,.19h-1.74c-.25,0-.46-.21-.46-.46v-3.67c0-.25,.21-.46,.46-.46h1.74c.25,0,.46,.21,.46,.46v.19h2.94Z" fill="#0ab04b"/>
      <polygon points="29.82 70.6 28.22 67.93 22.23 69.7 26.62 65.26 25.02 62.58 18.7 69.89 20.4 72.72 29.82 70.6" fill="#0ab04b"/>
      <path d="M43.96,83.39c.44,.04,.84-.24,.95-.68l.05-.19,.07-.25,.59-2.24h0s0-.03,.01-.04c.16-.61-.18-1.23-.79-1.4l-.23-.06-.21-.06-6.45-1.71-2.35,8.86,2.84,.76h0s.83-3.1,.83-3.1l1.42,.38h0c.48,.14,.77,.64,.64,1.12,0,.01,0,.02,0,.03h0l-.58,2.18h0s1.52,.4,1.52,.4h0l1.33,.35,.23-.88s0-.01,0-.02l.63-2.39c.12-.44-.09-.89-.49-1.07Zm-3.76-3.66l.45,.12s0,0,.01,0l1.42,.38c.24,.07,.37,.31,.31,.56l-.19,.71c-.06,.24-.3,.39-.54,.33l-1.42-.38s-.01,0-.02,0l-.45-.12,.42-1.59Z" fill="#0ab04b"/>
      <polygon points="32.78 81.45 28.75 78.41 29.57 77.32 33.6 80.35 34.81 78.74 30.79 75.71 31.51 74.75 35.53 77.78 36.91 75.96 30.54 71.16 25.02 78.48 31.4 83.28 32.78 81.45" fill="#0ab04b"/>
      <polygon points="18.07 62.66 17.18 57.69 18.54 57.44 19.42 62.41 21.41 62.05 20.52 57.09 21.7 56.88 22.58 61.83 24.84 61.43 23.43 53.59 14.41 55.2 15.81 63.06 18.07 62.66" fill="#0ab04b"/>
      <g>
        <polygon points="79.07 53.6 78.54 56.48 83.51 57.4 78.04 59.19 77.51 62.07 86.53 63.74 87.06 60.85 82.09 59.94 87.56 58.15 88.09 55.27 79.07 53.6" fill="#0ab04b"/>
        <path d="M65.38,81.65c.4-.18,.6-.63,.48-1.07l-.05-.19-.07-.26-.6-2.24h0s0-.03,0-.04c-.16-.61-.78-.98-1.39-.81l-.23,.06-.21,.06-6.44,1.74,2.38,8.85,2.84-.77h0s-.84-3.1-.84-3.1l1.42-.38h0c.49-.12,.98,.17,1.12,.65,0,.01,0,.02,0,.03h0l.59,2.18h0s1.52-.41,1.52-.41h0l1.32-.36-.24-.88s0-.01,0-.02l-.64-2.39c-.12-.44-.52-.72-.96-.68Zm-5.08-1.3l.45-.12s0,0,0,0l1.41-.38c.24-.07,.48,.08,.54,.33l.19,.71c.07,.24-.06,.49-.3,.56l-1.41,.38s-.01,0-.02,0l-.45,.12-.43-1.59Z" fill="#0ab04b"/>
        <polygon points="76.22 76.66 72.19 79.7 71.36 78.6 75.39 75.57 74.17 73.96 70.15 76.99 69.43 76.04 73.45 73.01 72.07 71.18 65.71 75.98 71.23 83.3 77.6 78.49 76.22 76.66" fill="#0ab04b"/>
        <polygon points="83.09 66.88 80.48 71.21 79.31 70.49 81.91 66.18 80.19 65.14 77.58 69.45 76.56 68.83 79.16 64.53 77.2 63.34 73.08 70.16 80.93 74.9 85.05 68.07 83.09 66.88" fill="#0ab04b"/>
      </g>
    </g>
    <polygon points="175.66 28.59 175.66 39.42 151.88 39.42 151.88 45.06 175.7 45.06 175.7 54.59 151.88 54.59 151.88 61.09 175.73 61.09 175.73 71.92 138.02 71.92 138.02 28.6 175.66 28.59" fill="#0ab04b"/>
    <polygon points="262.81 28.59 262.81 39.42 239.03 39.42 239.03 45.06 262.85 45.06 262.85 54.59 239.03 54.59 239.03 61.09 262.88 61.09 262.88 71.92 225.16 71.92 225.16 28.61 262.81 28.59" fill="#0ab04b"/>
    <polygon points="436.26 28.59 436.26 39.42 412.47 39.42 412.47 45.06 436.29 45.06 436.29 54.59 412.47 54.59 412.47 61.09 436.32 61.09 436.32 71.92 398.61 71.92 398.61 28.61 436.26 28.59" fill="#0ab04b"/>
    <polygon points="478.28 28.59 478.28 39.42 454.49 39.42 454.49 45.06 478.32 45.06 478.32 54.59 454.49 54.59 454.49 61.09 478.34 61.09 478.34 71.92 440.63 71.92 440.63 28.61 478.28 28.59" fill="#0ab04b"/>
    <polygon points="222.44 28.59 207.71 28.59 200.35 57.18 192.99 28.59 178.27 28.59 192.55 71.91 208.15 71.9 222.44 28.59" fill="#0ab04b"/>
    <path d="M302.63,51.58c2.05-.34,3.52-2.12,3.52-4.27v-13.12h0c0-.06,0-.13,0-.19,0-2.99-2.33-5.41-5.32-5.41h-33.68v43.3h13.9v.03s-.01-15.18-.01-15.18h6.93v.03c2.38,.02,4.3,1.95,4.3,4.33,0,.05,0,.1,0,.15h0v10.67h0s7.42,0,7.42,0h0s6.48,0,6.48,0v-4.29s0-.06,0-.09v-11.68c0-2.15-1.49-3.94-3.55-4.27Zm-21.59-12.17h2.21s.03,0,.05,0h6.92c1.19,0,2.07,.97,2.07,2.16v3.46c0,1.19-.87,2.16-2.07,2.16h-6.92s-.06,0-.08,0h-2.18v-7.78Z" fill="#0ab04b"/>
    <path d="M390.65,51.58c2.05-.34,3.52-2.12,3.52-4.27v-13.12h0c0-.06,0-.13,0-.19,0-2.99-2.33-5.41-5.32-5.41h-33.68v43.3h13.9v.03s-.01-15.18-.01-15.18h6.93v.03c2.37,.02,4.3,1.95,4.3,4.33,0,.05,0,.1,0,.15h0v10.67h0s7.41,0,7.41,0h0s6.48,0,6.48,0v-4.29s0-.06,0-.09v-11.68c0-2.15-1.49-3.94-3.55-4.27Zm-21.6-12.17h2.21s.03,0,.05,0h6.92c1.2,0,2.07,.97,2.07,2.16v3.46c0,1.19-.87,2.16-2.07,2.16h-6.92s-.06,0-.08,0h-2.18v-7.78Z" fill="#0ab04b"/>
    <path d="M350.77,42.45v-7.36c0-3.57-2.92-6.5-6.5-6.5h-27.28c-3.57,0-6.5,2.92-6.5,6.5v30.31c0,3.57,2.92,6.5,6.5,6.5h27.28c3.57,0,6.5-2.92,6.5-6.5v-18.62h-13.87v.02h-7.36v9.12h7.36v2.96c0,1.19-.97,2.17-2.17,2.17h-8.23c-1.19,0-2.17-.97-2.17-2.17v-17.32c0-1.19,.98-2.17,2.17-2.17h8.23c1.19,0,2.17,.97,2.17,2.17v.89h13.87Z" fill="#0ab04b"/>
    <polygon points="523.45 28.56 509.61 28.56 509.61 52.42 496.6 28.58 482.75 28.58 482.75 71.89 496.61 71.89 496.61 48.04 509.61 71.89 523.45 71.89 523.45 28.56" fill="#0ab04b"/>
  </g>
</svg>
